<svg xmlns="http://www.w3.org/2000/svg" width="36.804" height="34.068" viewBox="0 0 36.804 34.068">
  <g id="noun-flexibility-4211539" transform="translate(-3 -6.475)">
    <path id="Subtraction_20" data-name="Subtraction 20" d="M1658.764-259.662h0c-.336-.282-.7-.582-1.083-.866v-7.409h-3.4a.834.834,0,0,1-.711-.447.733.733,0,0,1,.1-.768l4.539-5.612a.736.736,0,0,1,.584-.26.737.737,0,0,1,.585.26l4.5,5.611.016.02a.717.717,0,0,1,.085.758.83.83,0,0,1-.706.439h-3.406v7.408c-.4.29-.766.581-1.1.867Z" transform="translate(-1637.37 281.5)" fill="#8d2528"/>
    <path id="Subtraction_22" data-name="Subtraction 22" d="M1673.445-252.544a1.141,1.141,0,0,1-1.183-1.092v-6.128c0-4.927-4.326-8.936-9.642-8.936h-1.362v3.4a.735.735,0,0,1-.448.695,1.054,1.054,0,0,1-.39.078.817.817,0,0,1-.516-.162l-6.089-4.5-.014-.01a.7.7,0,0,1-.3-.595.809.809,0,0,1,.322-.61l6.072-4.451.023-.018a.726.726,0,0,1,.464-.154.974.974,0,0,1,.357.069.827.827,0,0,1,.476.706v3.406h1.362c6.645,0,12.052,4.97,12.052,11.08v6.128A1.142,1.142,0,0,1,1673.445-252.544Z" transform="translate(-1650.5 293.088)" fill="#8d2528"/>
    <path id="Subtraction_21" data-name="Subtraction 21" d="M1663.145-264.562a.789.789,0,0,1-.327-.063.832.832,0,0,1-.448-.71v-3.4h-1.255a8.776,8.776,0,0,0-6.221,2.549,15.974,15.974,0,0,0-1.082-1.931,11.1,11.1,0,0,1,7.3-2.723h1.255v-3.406a.738.738,0,0,1,.424-.7l.016-.008a.674.674,0,0,1,.3-.068.77.77,0,0,1,.478.172l5.612,4.457.011.009a.759.759,0,0,1,.277.595.834.834,0,0,1-.3.61l-5.564,4.451-.008.007A.715.715,0,0,1,1663.145-264.562Z" transform="translate(-1629.685 293.088)" fill="#8d2528"/>
  </g>
</svg>
