<svg xmlns="http://www.w3.org/2000/svg" width="60.883" height="54.078" viewBox="0 0 60.883 54.078">
  <path id="Path_720" data-name="Path 720" d="M12.94,26.133V69.62a.791.791,0,0,0,.791.791h59.3a.791.791,0,0,0,.791-.791V26.133a.791.791,0,0,0-.791-.791H58.447V17.124a.791.791,0,0,0-.791-.791H28.373a.791.791,0,0,0-.791.791v8.217H13.731A.791.791,0,0,0,12.94,26.133Zm43.924-.962h-27.7V17.916h27.7ZM14.523,47.551H34.212v5.224a.791.791,0,0,0,.791.791H51.759a.791.791,0,0,0,.791-.791V47.551H72.24V68.829H14.523Zm21.272,4.433V47.551H50.967v4.433H35.795ZM14.523,26.925H72.24V45.968H14.523Z" transform="translate(-12.94 -16.333)" fill="#8d2528"/>
</svg>
